# xmcd CD database file
#
# Track frame offsets:
#	150
#	19986
#	37612
#	56731
#	74404
#	86562
#	97900
#	115969
#	136700
#	152822
#	167032
#
# Disc length: 2513 seconds
#
# Revision: 0
# Processed by: cddbd v1.5.1PL2 Copyright (c) Steve Scherf et al.
# Submitted via: CDex 1.51
#
DISCID=8609cf0b
DTITLE=Laurel Aitken - Superstar
DYEAR=2005
DGENRE=Ska
TTITLE0=Superstar
TTITLE1=If You Need Good Loving Tonight
TTITLE2=Rum and Coconut Water
TTITLE3=Something's Got To Be Wrong
TTITLE4=Oooh Baby
TTITLE5=Dance To The Music
TTITLE6=Gloria
TTITLE7=People Of The World Unite
TTITLE8=Down In Africa
TTITLE9=Maria
TTITLE10=Who Say
EXTD=YEAR: 2005
EXTT0=
EXTT1=
EXTT2=
EXTT3=
EXTT4=
EXTT5=
EXTT6=
EXTT7=
EXTT8=
EXTT9=
EXTT10=
PLAYORDER=
